<mxfile host="app.diagrams.net" modified="2022-10-11T22:00:45.665Z" agent="5.0 (Macintosh; Intel Mac OS X 10_15_7) AppleWebKit/537.36 (KHTML, like Gecko) Chrome/105.0.0.0 Safari/537.36" etag="_3Y4yoSxu24LaPJqqtt2" version="20.4.0" type="github">
  <diagram id="zWjMp5dFjxy3bUsTLI2n" name="ページ1">
    <mxGraphModel dx="946" dy="614" grid="1" gridSize="10" guides="1" tooltips="1" connect="1" arrows="1" fold="1" page="1" pageScale="1" pageWidth="827" pageHeight="1169" math="0" shadow="0">
      <root>
        <mxCell id="0" />
        <mxCell id="1" parent="0" />
        <mxCell id="m5rp2LUOo8AU1s-LMjZl-16" style="edgeStyle=orthogonalEdgeStyle;rounded=0;orthogonalLoop=1;jettySize=auto;html=1;entryX=0.5;entryY=0;entryDx=0;entryDy=0;curved=1;" parent="1" target="m5rp2LUOo8AU1s-LMjZl-6" edge="1">
          <mxGeometry relative="1" as="geometry">
            <mxPoint x="325" y="390" as="sourcePoint" />
          </mxGeometry>
        </mxCell>
        <mxCell id="m5rp2LUOo8AU1s-LMjZl-18" style="edgeStyle=orthogonalEdgeStyle;rounded=0;orthogonalLoop=1;jettySize=auto;html=1;entryX=0.5;entryY=0;entryDx=0;entryDy=0;curved=1;" parent="1" source="m5rp2LUOo8AU1s-LMjZl-1" target="m5rp2LUOo8AU1s-LMjZl-3" edge="1">
          <mxGeometry relative="1" as="geometry" />
        </mxCell>
        <mxCell id="m5rp2LUOo8AU1s-LMjZl-58" style="edgeStyle=orthogonalEdgeStyle;curved=1;rounded=0;orthogonalLoop=1;jettySize=auto;html=1;entryX=0.5;entryY=0;entryDx=0;entryDy=0;" parent="1" target="m5rp2LUOo8AU1s-LMjZl-53" edge="1">
          <mxGeometry relative="1" as="geometry">
            <mxPoint x="340" y="390" as="sourcePoint" />
          </mxGeometry>
        </mxCell>
        <mxCell id="m5rp2LUOo8AU1s-LMjZl-1" value="Landing page" style="rounded=0;whiteSpace=wrap;html=1;" parent="1" vertex="1">
          <mxGeometry x="120" y="80" width="410" height="260" as="geometry" />
        </mxCell>
        <mxCell id="m5rp2LUOo8AU1s-LMjZl-3" value="" style="rounded=0;whiteSpace=wrap;html=1;" parent="1" vertex="1">
          <mxGeometry x="120" y="440" width="410" height="260" as="geometry" />
        </mxCell>
        <mxCell id="m5rp2LUOo8AU1s-LMjZl-4" value="Header" style="rounded=0;whiteSpace=wrap;html=1;" parent="1" vertex="1">
          <mxGeometry x="130" y="450" width="390" height="30" as="geometry" />
        </mxCell>
        <mxCell id="m5rp2LUOo8AU1s-LMjZl-46" style="edgeStyle=orthogonalEdgeStyle;curved=1;rounded=0;orthogonalLoop=1;jettySize=auto;html=1;entryX=0.5;entryY=0;entryDx=0;entryDy=0;" parent="1" source="m5rp2LUOo8AU1s-LMjZl-6" target="m5rp2LUOo8AU1s-LMjZl-39" edge="1">
          <mxGeometry relative="1" as="geometry" />
        </mxCell>
        <mxCell id="m5rp2LUOo8AU1s-LMjZl-6" value="" style="rounded=0;whiteSpace=wrap;html=1;" parent="1" vertex="1">
          <mxGeometry x="640" y="440" width="410" height="260" as="geometry" />
        </mxCell>
        <mxCell id="m5rp2LUOo8AU1s-LMjZl-33" value="" style="edgeStyle=orthogonalEdgeStyle;curved=1;rounded=0;orthogonalLoop=1;jettySize=auto;html=1;" parent="1" source="m5rp2LUOo8AU1s-LMjZl-8" target="m5rp2LUOo8AU1s-LMjZl-22" edge="1">
          <mxGeometry relative="1" as="geometry" />
        </mxCell>
        <mxCell id="m5rp2LUOo8AU1s-LMjZl-8" value="CreateMap" style="rounded=0;whiteSpace=wrap;html=1;fillColor=#dae8fc;strokeColor=#6c8ebf;" parent="1" vertex="1">
          <mxGeometry x="130" y="490" width="390" height="200" as="geometry" />
        </mxCell>
        <mxCell id="m5rp2LUOo8AU1s-LMjZl-9" value="CreateComponent" style="rounded=0;whiteSpace=wrap;html=1;fillColor=#d5e8d4;strokeColor=#82b366;" parent="1" vertex="1">
          <mxGeometry x="650" y="490" width="390" height="200" as="geometry" />
        </mxCell>
        <mxCell id="m5rp2LUOo8AU1s-LMjZl-14" value="Header" style="rounded=0;whiteSpace=wrap;html=1;" parent="1" vertex="1">
          <mxGeometry x="650" y="450" width="390" height="30" as="geometry" />
        </mxCell>
        <mxCell id="m5rp2LUOo8AU1s-LMjZl-22" value="" style="rounded=0;whiteSpace=wrap;html=1;" parent="1" vertex="1">
          <mxGeometry x="120" y="800" width="410" height="260" as="geometry" />
        </mxCell>
        <mxCell id="m5rp2LUOo8AU1s-LMjZl-23" value="Header" style="rounded=0;whiteSpace=wrap;html=1;" parent="1" vertex="1">
          <mxGeometry x="130" y="810" width="390" height="30" as="geometry" />
        </mxCell>
        <mxCell id="m5rp2LUOo8AU1s-LMjZl-24" value="" style="rounded=0;whiteSpace=wrap;html=1;fillColor=#dae8fc;strokeColor=#6c8ebf;" parent="1" vertex="1">
          <mxGeometry x="130" y="850" width="390" height="200" as="geometry" />
        </mxCell>
        <mxCell id="m5rp2LUOo8AU1s-LMjZl-25" value="Canvas" style="rounded=0;whiteSpace=wrap;html=1;" parent="1" vertex="1">
          <mxGeometry x="180" y="860" width="160" height="150" as="geometry" />
        </mxCell>
        <mxCell id="m5rp2LUOo8AU1s-LMjZl-26" value="Sidebar" style="rounded=0;whiteSpace=wrap;html=1;" parent="1" vertex="1">
          <mxGeometry x="380" y="860" width="130" height="180" as="geometry" />
        </mxCell>
        <mxCell id="m5rp2LUOo8AU1s-LMjZl-27" value="Buttons" style="rounded=0;whiteSpace=wrap;html=1;" parent="1" vertex="1">
          <mxGeometry x="180" y="1020" width="160" height="20" as="geometry" />
        </mxCell>
        <mxCell id="m5rp2LUOo8AU1s-LMjZl-39" value="" style="rounded=0;whiteSpace=wrap;html=1;" parent="1" vertex="1">
          <mxGeometry x="640" y="800" width="410" height="260" as="geometry" />
        </mxCell>
        <mxCell id="m5rp2LUOo8AU1s-LMjZl-40" value="Header" style="rounded=0;whiteSpace=wrap;html=1;" parent="1" vertex="1">
          <mxGeometry x="650" y="810" width="390" height="30" as="geometry" />
        </mxCell>
        <mxCell id="m5rp2LUOo8AU1s-LMjZl-41" value="" style="rounded=0;whiteSpace=wrap;html=1;fillColor=#d5e8d4;strokeColor=#82b366;" parent="1" vertex="1">
          <mxGeometry x="650" y="850" width="390" height="200" as="geometry" />
        </mxCell>
        <mxCell id="m5rp2LUOo8AU1s-LMjZl-42" value="Canvas" style="rounded=0;whiteSpace=wrap;html=1;" parent="1" vertex="1">
          <mxGeometry x="700" y="860" width="160" height="150" as="geometry" />
        </mxCell>
        <mxCell id="m5rp2LUOo8AU1s-LMjZl-43" value="Sidebar" style="rounded=0;whiteSpace=wrap;html=1;" parent="1" vertex="1">
          <mxGeometry x="900" y="860" width="130" height="180" as="geometry" />
        </mxCell>
        <mxCell id="m5rp2LUOo8AU1s-LMjZl-44" value="Buttons" style="rounded=0;whiteSpace=wrap;html=1;" parent="1" vertex="1">
          <mxGeometry x="700" y="1020" width="160" height="20" as="geometry" />
        </mxCell>
        <mxCell id="m5rp2LUOo8AU1s-LMjZl-69" style="edgeStyle=orthogonalEdgeStyle;curved=1;rounded=0;orthogonalLoop=1;jettySize=auto;html=1;entryX=0.5;entryY=0;entryDx=0;entryDy=0;" parent="1" source="m5rp2LUOo8AU1s-LMjZl-53" target="m5rp2LUOo8AU1s-LMjZl-68" edge="1">
          <mxGeometry relative="1" as="geometry" />
        </mxCell>
        <mxCell id="m5rp2LUOo8AU1s-LMjZl-53" value="" style="rounded=0;whiteSpace=wrap;html=1;" parent="1" vertex="1">
          <mxGeometry x="1200" y="440" width="410" height="260" as="geometry" />
        </mxCell>
        <mxCell id="m5rp2LUOo8AU1s-LMjZl-54" value="Header" style="rounded=0;whiteSpace=wrap;html=1;" parent="1" vertex="1">
          <mxGeometry x="1210" y="450" width="390" height="30" as="geometry" />
        </mxCell>
        <mxCell id="m5rp2LUOo8AU1s-LMjZl-55" value="SwitchGalleryView" style="rounded=0;whiteSpace=wrap;html=1;" parent="1" vertex="1">
          <mxGeometry x="1210" y="490" width="390" height="30" as="geometry" />
        </mxCell>
        <mxCell id="m5rp2LUOo8AU1s-LMjZl-56" value="MapList" style="rounded=0;whiteSpace=wrap;html=1;" parent="1" vertex="1">
          <mxGeometry x="1210" y="530" width="390" height="160" as="geometry" />
        </mxCell>
        <mxCell id="m5rp2LUOo8AU1s-LMjZl-59" value="src&lt;br&gt;- components/&lt;br&gt;&amp;nbsp; &amp;nbsp; - App&lt;br&gt;&amp;nbsp; &amp;nbsp; - Header&lt;br&gt;&amp;nbsp; &amp;nbsp; - CreateMap/&lt;br&gt;&amp;nbsp; &amp;nbsp; &amp;nbsp; &amp;nbsp; - Canvas&lt;br&gt;&amp;nbsp; &amp;nbsp; &amp;nbsp; &amp;nbsp; - Buttons&lt;br&gt;&amp;nbsp; &amp;nbsp; &amp;nbsp; &amp;nbsp; - Sidebar&lt;br&gt;&amp;nbsp; &amp;nbsp; - CreateComponent/&lt;br&gt;&amp;nbsp; &amp;nbsp; &amp;nbsp; &amp;nbsp; - Canvas&lt;br&gt;&amp;nbsp; &amp;nbsp; &amp;nbsp; &amp;nbsp; - Buttons&lt;br&gt;&amp;nbsp; &amp;nbsp; &amp;nbsp; &amp;nbsp; - Sidebar&lt;br&gt;&amp;nbsp; &amp;nbsp; - Gallery/&lt;br&gt;&amp;nbsp; &amp;nbsp; &amp;nbsp; &amp;nbsp; - SwitchGalleryView&lt;br&gt;&amp;nbsp; &amp;nbsp; &amp;nbsp; &amp;nbsp; - MapList&lt;br&gt;&amp;nbsp; &amp;nbsp; &amp;nbsp; &amp;nbsp; - Modal" style="rounded=1;whiteSpace=wrap;html=1;fillColor=#f5f5f5;fontColor=#333333;strokeColor=#666666;align=left;shadow=1;" parent="1" vertex="1">
          <mxGeometry x="640" y="80" width="190" height="250" as="geometry" />
        </mxCell>
        <mxCell id="m5rp2LUOo8AU1s-LMjZl-60" value="watashi&lt;br&gt;watashi/create&lt;br&gt;watashi/gallery&lt;br&gt;watashi/gallery/[map_id]" style="rounded=1;whiteSpace=wrap;html=1;fillColor=#f5f5f5;fontColor=#333333;strokeColor=#666666;align=left;shadow=1;" parent="1" vertex="1">
          <mxGeometry x="880" y="80" width="170" height="250" as="geometry" />
        </mxCell>
        <mxCell id="m5rp2LUOo8AU1s-LMjZl-64" value="watashi/" style="rounded=0;whiteSpace=wrap;html=1;shadow=1;fillColor=#fff2cc;strokeColor=#d6b656;" parent="1" vertex="1">
          <mxGeometry x="120" y="40" width="140" height="30" as="geometry" />
        </mxCell>
        <mxCell id="WrKAh8tCXumk3cRiIQOZ-1" value="" style="edgeStyle=orthogonalEdgeStyle;rounded=0;orthogonalLoop=1;jettySize=auto;html=1;" edge="1" parent="1" source="m5rp2LUOo8AU1s-LMjZl-66" target="m5rp2LUOo8AU1s-LMjZl-4">
          <mxGeometry relative="1" as="geometry" />
        </mxCell>
        <mxCell id="m5rp2LUOo8AU1s-LMjZl-66" value="watashi/createMap" style="rounded=0;whiteSpace=wrap;html=1;shadow=1;fillColor=#fff2cc;strokeColor=#d6b656;" parent="1" vertex="1">
          <mxGeometry x="120" y="400" width="140" height="30" as="geometry" />
        </mxCell>
        <mxCell id="m5rp2LUOo8AU1s-LMjZl-67" value="watashi/gallery" style="rounded=0;whiteSpace=wrap;html=1;shadow=1;fillColor=#fff2cc;strokeColor=#d6b656;" parent="1" vertex="1">
          <mxGeometry x="1200" y="400" width="140" height="30" as="geometry" />
        </mxCell>
        <mxCell id="m5rp2LUOo8AU1s-LMjZl-68" value="" style="rounded=0;whiteSpace=wrap;html=1;" parent="1" vertex="1">
          <mxGeometry x="1200" y="800" width="410" height="260" as="geometry" />
        </mxCell>
        <mxCell id="m5rp2LUOo8AU1s-LMjZl-70" value="watashi/gallery/[map_id]" style="rounded=0;whiteSpace=wrap;html=1;shadow=1;fillColor=#fff2cc;strokeColor=#d6b656;" parent="1" vertex="1">
          <mxGeometry x="1200" y="760" width="190" height="30" as="geometry" />
        </mxCell>
        <mxCell id="m5rp2LUOo8AU1s-LMjZl-71" value="Modal" style="rounded=0;whiteSpace=wrap;html=1;" parent="1" vertex="1">
          <mxGeometry x="1210" y="850" width="390" height="200" as="geometry" />
        </mxCell>
        <mxCell id="m5rp2LUOo8AU1s-LMjZl-72" value="Header" style="rounded=0;whiteSpace=wrap;html=1;" parent="1" vertex="1">
          <mxGeometry x="1210" y="810" width="390" height="30" as="geometry" />
        </mxCell>
        <mxCell id="m5rp2LUOo8AU1s-LMjZl-73" value="Compoent Tree" style="text;html=1;align=left;verticalAlign=middle;resizable=0;points=[];autosize=1;strokeColor=none;fillColor=none;" parent="1" vertex="1">
          <mxGeometry x="640" y="50" width="110" height="30" as="geometry" />
        </mxCell>
        <mxCell id="m5rp2LUOo8AU1s-LMjZl-74" value="Routing" style="text;html=1;align=left;verticalAlign=middle;resizable=0;points=[];autosize=1;strokeColor=none;fillColor=none;" parent="1" vertex="1">
          <mxGeometry x="880" y="50" width="60" height="30" as="geometry" />
        </mxCell>
        <mxCell id="WrKAh8tCXumk3cRiIQOZ-2" value="watashi/createComponent" style="rounded=0;whiteSpace=wrap;html=1;shadow=1;fillColor=#fff2cc;strokeColor=#d6b656;" vertex="1" parent="1">
          <mxGeometry x="570" y="410" width="160" height="30" as="geometry" />
        </mxCell>
      </root>
    </mxGraphModel>
  </diagram>
</mxfile>
